<?xml version="1.0" encoding="iso-8859-1"?>
<!-- Generator: Adobe Illustrator 24.1.2, SVG Export Plug-In . SVG Version: 6.00 Build 0)  -->
<svg version="1.1" baseProfile="basic" id="Layer_1"
	 xmlns="http://www.w3.org/2000/svg" xmlns:xlink="http://www.w3.org/1999/xlink" x="0px" y="0px" viewBox="0 0 48 48"
	 xml:space="preserve">
<path style="opacity:0.15;fill:#52CCCC;" d="M36.25,19.75H33.5v-6.5c0-5.247-4.253-9.5-9.5-9.5h0c-5.247,0-9.5,4.253-9.5,9.5v6.5
	h-2.75c-0.781,0.781-1.219,1.219-2,2v19.5l3,3l22.5,0.017c1.172-1.171,1.828-1.827,3-2.998V21.733L36.25,19.75z M29.5,21.73
	l-11,0.02L17,19.73v-6.75c0-3.86,3.14-7,7-7s7,3.14,7,7v6.75L29.5,21.73z"/>
<circle style="opacity:0.8;fill:#52CCCC;" cx="24" cy="32" r="2"/>
<circle style="opacity:0.8;fill:#52CCCC;" cx="31" cy="32" r="2"/>
<circle style="opacity:0.8;fill:#52CCCC;" cx="17" cy="32" r="2"/>
<path style="opacity:0.8;fill:#52CCCC;" d="M14.022,43h-0.5v-2h0.5V43z M15.301,41h-0.5v2h0.5V41z M16.579,41h-0.5v2h0.5V41z
	 M17.858,41h-0.5v2h0.5V41z M19.137,41h-0.5v2h0.5V41z M20.415,41h-0.5v2h0.5V41z M21.693,41h-0.5v2h0.5V41z M22.972,41h-0.5v2h0.5
	V41z M24.25,41h-0.5v2h0.5V41z M25.528,41h-0.5v2h0.5V41z M26.807,41h-0.5v2h0.5V41z M28.085,41h-0.5v2h0.5V41z M29.363,41h-0.5v2
	h0.5V41z M30.642,41h-0.5v2h0.5V41z M31.921,41h-0.5v2h0.5V41z M33.199,41h-0.5v2h0.5V41z M34.478,41h-0.5v2h0.5V41z"/>
<path style="fill:#52CCCC;" d="M38.5,27v-5.371L36.353,19.5H34.75v-6.25C34.75,7.322,29.928,2.5,24,2.5S13.25,7.322,13.25,13.25
	v6.25h-1.604L9.5,21.646V27l-1,1v13.768l3.732,3.732H18l0.995-0.995l10.017,0.008l0.988,1l5.768,0.004l3.732-3.729V28L38.5,27z
	 M14.75,13.25C14.75,8.149,18.899,4,24,4s9.25,4.149,9.25,9.25v6.5h-2v-6.77c0-3.998-3.252-7.25-7.25-7.25s-7.25,3.252-7.25,7.25
	v6.77h-2V13.25z M30.75,12.98v6.667l-1.375,1.833l-10.75,0.02l-1.375-1.853V12.98c0-3.722,3.028-6.75,6.75-6.75
	S30.75,9.258,30.75,12.98z M38,41.166l-2.854,2.852L12.854,44L10,41.146V21.854L11.854,20h5.036l1.485,2l11.25-0.02L31.11,20h5.037
	L38,21.837V41.166z"/>
</svg>